<svg width="205" height="93" viewBox="0 0 205 93" fill="none" xmlns="http://www.w3.org/2000/svg">
<g clip-path="url(#clip0_80_366)">
<path d="M41.5075 3.51L48.6075 3.4675M57.2625 22.4475L61.7825 26.6875M23.0225 76.4175L22.975 62.1425M45.4075 92.505L45.6175 77.84M74.6375 34.975C80.2825 38.465 85.6925 42.3125 91.0975 46.1575L89.9025 60.7975C75.09 71.315 60.2775 81.83 45.5725 92.4975L0 60.1325L0.0300002 45.865L7.345 41.4075M0.15 45.9075C15.3825 56.5125 30.7 67.0025 45.625 78.0375C53.035 73.31 60.05 67.9975 67.07 62.72L49.1325 47.87M42.74 43.9125L24.0825 28.9825M90.25 46.4475C82.635 51.805 75.0575 57.2125 67.475 62.615M58.5675 49.965C59.83 49.14 62.535 49.33 62.04 47.27C62.2975 43.74 62.345 40.3025 61.795 36.82C62.875 36.1375 65.3575 35.1 65.3575 35.1M79.34 48.0075C80.6825 47.9575 82.6575 47.4075 83.2975 46.44C82.87 44.535 82.035 42.64 82.855 40.715C83.0075 38.81 85.6375 40.915 86.9125 40.825L88.91 41.355M60.695 36.0075C56.4075 38.6525 52.9375 41.36 48.74 44.14M42.065 48.24C35.6567 52.628 29.3029 57.095 23.005 61.64M67.53 62.89L69.2125 75.7025M48.61 57.5025C51.8975 54.795 50.0325 49.935 48.135 48.51C49.905 40.835 40.6475 41.985 42.695 48.51C40.54 50.5725 38.5475 53.9625 41.51 57.5025C36.6425 60.035 36.715 64.0875 36.9175 68.05H54.425C54.11 64.5 55.1125 60.58 48.61 57.5M54.9975 30.76C48.2225 27.36 40.73 27.605 35.1225 30.76M22.2975 30.21C25.8375 27.735 29.2225 25.04 32.59 22.3375M45.06 6V0M10.9625 28.9825C11.605 26.5875 14.7875 27.1675 16.08 28.7525C17.165 30.18 18.4425 25.7675 19.2275 27.0975C20.1025 29.0275 20.9725 31.245 23.265 31.7825C29.2925 35.7675 29.0875 43.8875 28.99 50.3025H14.0725C13.7875 46.1225 22.2575 40.9975 19.3075 38.9775C15.4775 40.9225 12.4725 47.745 7.7625 43.8275C5.8825 40.3025 12.485 32.6975 10.9625 28.9825ZM61.615 33.65C62.6675 31.9625 62.2675 28.3325 59.4475 29.825C56.5575 31.675 56.9175 27.925 59.0625 27.2425C60.6375 27.1325 66.27 25.415 65.79 28.3475C64.6175 32.535 65.4175 36.9225 70.19 37.655C74.4 39.845 78.1475 43.71 78.3925 48.69C76.8425 51.0725 73.1575 49.2825 70.755 50.005C67.14 50.52 68.4625 49.7 70.7875 48.6075C72.8975 47.925 73.4525 46.9925 71.4325 45.6475C72.1325 43.745 77.24 41.7125 70.6925 43.5725C56.46 39.29 61.345 35.2575 61.615 33.65ZM70.395 36.705C64.4075 36.53 66.0325 30.7875 69.22 27.875C70.0775 25.21 72.7825 26.2375 74.87 26.05H87.03C85.645 28.25 78.23 26.755 83.405 27.91C89.1675 28.285 80.1925 31.9575 77.7675 29.925C72.14 28.365 81.55 32.1075 80.35 32.0675C78.515 34.2875 69.4425 32.1725 75.7675 34.2975C73.785 34.56 71.9975 35.555 70.395 36.705ZM55.235 27.2125C48.1275 24.0675 41.48 23.985 34.885 27.2125V32.89C40.665 34.885 48.5725 34.2275 55.235 32.89C55.4075 30.8075 55.06 29.2925 55.235 27.2125ZM46.2425 22.0075C45.8275 15.5875 53.5675 9.7875 57.8375 13.075C62.11 16.36 57.555 21.35 54.525 23.6625C52.1225 22.3875 49.01 22.045 46.2425 22.0075ZM43.8775 22.0075C44.7325 18.0575 38.9425 10.1325 32.2825 13.075C25.6225 16.015 34.0025 23.0425 35.595 23.6625C35.595 23.6625 37.82 22.225 43.8775 22.0075ZM45.06 6.175C50.82 10.255 47.78 14.5575 45.06 16.09C40.695 13.1025 40.6725 9.0025 45.06 6.175Z" stroke="#FFFBFB" stroke-width="2" stroke-linecap="round" stroke-linejoin="round"/>
</g>
<path d="M103.066 24.3244H114.514C115.778 24.3244 116.41 24.9564 116.41 26.2204V30.2524C116.41 31.2284 115.97 31.7404 115.09 31.7884C115.97 31.8684 116.41 32.3644 116.41 33.2764V37.3564C116.41 38.6204 115.778 39.2524 114.514 39.2524H103.066V24.3244ZM112.69 37.2124V33.2284C112.69 32.9244 112.642 32.7244 112.546 32.6284C112.466 32.5324 112.266 32.4844 111.946 32.4844H106.954V37.8364H111.874C112.178 37.8364 112.386 37.7964 112.498 37.7164C112.626 37.6204 112.69 37.4524 112.69 37.2124ZM112.69 30.3244V26.4844C112.69 26.1644 112.642 25.9644 112.546 25.8844C112.466 25.7884 112.266 25.7404 111.946 25.7404H106.954V31.0684H111.946C112.266 31.0684 112.466 31.0284 112.546 30.9484C112.642 30.8524 112.69 30.6444 112.69 30.3244ZM133.135 29.5804H129.247V26.4844C129.247 26.1644 129.199 25.9644 129.103 25.8844C129.007 25.7884 128.807 25.7404 128.503 25.7404H124.615C124.311 25.7404 124.111 25.7884 124.015 25.8844C123.919 25.9644 123.871 26.1644 123.871 26.4844V37.0924C123.871 37.4124 123.919 37.6204 124.015 37.7164C124.111 37.7964 124.311 37.8364 124.615 37.8364H128.503C128.807 37.8364 129.007 37.7964 129.103 37.7164C129.199 37.6204 129.247 37.4124 129.247 37.0924V34.0204H133.135V37.3564C133.135 38.6204 132.503 39.2524 131.239 39.2524H121.879C120.615 39.2524 119.983 38.6204 119.983 37.3564V26.2204C119.983 24.9564 120.615 24.3244 121.879 24.3244H131.239C132.503 24.3244 133.135 24.9564 133.135 26.2204V29.5804ZM113.146 54.3244H117.418L111.394 61.6204L117.634 69.2524H113.314L107.242 61.6204L113.146 54.3244ZM103.066 54.3244H106.858V69.2524H103.066V54.3244ZM123.73 69.2524H120.01V57.6124H123.73V69.2524ZM119.938 55.6684V53.1724H123.802V55.6684H119.938ZM132.501 57.6124H137.781C139.045 57.6124 139.677 58.2444 139.677 59.5084V69.2524H135.957V59.7724C135.957 59.4684 135.909 59.2684 135.813 59.1724C135.717 59.0764 135.517 59.0284 135.213 59.0284H131.997C131.437 59.0284 131.157 59.2844 131.157 59.7964V60.5164H131.133V69.2524H127.413V57.6124H131.133V58.4044C131.325 57.8764 131.781 57.6124 132.501 57.6124ZM147.318 67.8364H150.558C151.134 67.8364 151.422 67.5804 151.422 67.0684V59.7964C151.422 59.2844 151.134 59.0284 150.558 59.0284H147.318C146.998 59.0284 146.79 59.0764 146.694 59.1724C146.614 59.2684 146.574 59.4684 146.574 59.7724V67.0924C146.574 67.4124 146.614 67.6204 146.694 67.7164C146.79 67.7964 146.998 67.8364 147.318 67.8364ZM155.118 68.6524H155.142V70.7404C155.142 72.0044 154.51 72.6364 153.246 72.6364H143.454V71.2204H150.678C150.998 71.2204 151.198 71.1724 151.278 71.0764C151.374 70.9804 151.422 70.7804 151.422 70.4764V68.4604C151.23 68.9884 150.774 69.2524 150.054 69.2524H144.774C143.51 69.2524 142.878 68.6204 142.878 67.3564V59.5084C142.878 58.2444 143.51 57.6124 144.774 57.6124H150.054C150.774 57.6124 151.23 57.8764 151.422 58.4044V57.6124H155.118V68.6524ZM162.833 67.8364H166.073C166.649 67.8364 166.937 67.5804 166.937 67.0684V59.7964C166.937 59.2844 166.649 59.0284 166.073 59.0284H162.833C162.513 59.0284 162.305 59.0764 162.209 59.1724C162.129 59.2684 162.089 59.4684 162.089 59.7724V67.0924C162.089 67.4124 162.129 67.6204 162.209 67.7164C162.305 67.7964 162.513 67.8364 162.833 67.8364ZM166.937 53.1964H170.633V69.2524H166.937V68.4604C166.745 68.9884 166.289 69.2524 165.569 69.2524H160.289C159.025 69.2524 158.393 68.6204 158.393 67.3564V59.5084C158.393 58.2444 159.025 57.6124 160.289 57.6124H165.569C166.289 57.6124 166.745 57.8764 166.937 58.4044V53.1964ZM182.642 67.0924V59.7724C182.642 59.4684 182.594 59.2684 182.498 59.1724C182.402 59.0764 182.202 59.0284 181.898 59.0284H178.466C178.146 59.0284 177.938 59.0764 177.842 59.1724C177.762 59.2684 177.722 59.4684 177.722 59.7724V67.0924C177.722 67.4124 177.762 67.6204 177.842 67.7164C177.938 67.7964 178.146 67.8364 178.466 67.8364H181.898C182.202 67.8364 182.402 67.7964 182.498 67.7164C182.594 67.6204 182.642 67.4124 182.642 67.0924ZM175.922 57.6124H184.442C185.706 57.6124 186.338 58.2444 186.338 59.5084V67.3564C186.338 68.6204 185.706 69.2524 184.442 69.2524H175.922C174.658 69.2524 174.026 68.6204 174.026 67.3564V59.5084C174.026 58.2444 174.658 57.6124 175.922 57.6124ZM194.821 57.6124H200.101C201.365 57.6124 201.997 58.2444 201.997 59.5084V69.2524H198.277V59.7724C198.277 59.4684 198.229 59.2684 198.133 59.1724C198.037 59.0764 197.837 59.0284 197.533 59.0284H194.317C193.757 59.0284 193.477 59.2844 193.477 59.7964V60.5164H193.453V69.2524H189.733V57.6124H193.453V58.4044C193.645 57.8764 194.101 57.6124 194.821 57.6124Z" fill="#FDFAFA"/>
<defs>
<clipPath id="clip0_80_366">
<rect width="91.0975" height="92.505" fill="white"/>
</clipPath>
</defs>
</svg>
