<svg width="251" height="250" viewBox="0 0 251 250" fill="none" xmlns="http://www.w3.org/2000/svg">
<circle cx="125.666" cy="125" r="124.5" stroke="black"/>
<path d="M116.612 72.9063C117.785 71.5969 119.22 70.5495 120.825 69.8324C122.43 69.1153 124.167 68.7446 125.925 68.7446C127.683 68.7446 129.42 69.1153 131.025 69.8324C132.63 70.5495 134.065 71.5969 135.237 72.9063L139.612 77.7938C140.863 79.1907 142.411 80.2884 144.143 81.0057C145.876 81.723 147.747 82.0415 149.619 81.9376L156.181 81.5751C157.936 81.4783 159.692 81.7529 161.334 82.3808C162.976 83.0088 164.467 83.976 165.71 85.2194C166.953 86.4627 167.919 87.9542 168.547 89.5965C169.174 91.2388 169.448 92.9948 169.35 94.7501L168.987 101.306C168.885 103.177 169.203 105.047 169.921 106.778C170.638 108.509 171.735 110.057 173.131 111.306L178.019 115.681C179.329 116.854 180.377 118.29 181.095 119.895C181.813 121.5 182.184 123.239 182.184 124.997C182.184 126.755 181.813 128.494 181.095 130.099C180.377 131.704 179.329 133.14 178.019 134.313L173.131 138.688C171.734 139.938 170.637 141.487 169.919 143.219C169.202 144.951 168.884 146.822 168.987 148.694L169.35 155.256C169.447 157.012 169.172 158.768 168.544 160.41C167.916 162.051 166.949 163.543 165.706 164.785C164.462 166.028 162.971 166.995 161.329 167.622C159.686 168.249 157.93 168.523 156.175 168.425L149.619 168.063C147.748 167.96 145.878 168.279 144.147 168.996C142.416 169.713 140.868 170.81 139.619 172.206L135.244 177.094C134.071 178.404 132.636 179.453 131.03 180.17C129.425 180.888 127.686 181.259 125.928 181.259C124.17 181.259 122.431 180.888 120.826 180.17C119.221 179.453 117.785 178.404 116.612 177.094L112.237 172.206C110.987 170.809 109.438 169.712 107.706 168.994C105.974 168.277 104.103 167.959 102.231 168.063L95.6687 168.425C93.9134 168.522 92.1575 168.247 90.5155 167.619C88.8735 166.991 87.3825 166.024 86.1397 164.781C84.897 163.537 83.9305 162.046 83.3033 160.404C82.6761 158.761 82.4024 157.005 82.5 155.25L82.8625 148.694C82.9654 146.823 82.6464 144.953 81.9292 143.222C81.2119 141.491 80.1147 139.944 78.7187 138.694L73.8312 134.319C72.5208 133.146 71.4725 131.711 70.7547 130.105C70.037 128.5 69.666 126.762 69.666 125.003C69.666 123.245 70.037 121.506 70.7547 119.901C71.4725 118.296 72.5208 116.86 73.8312 115.688L78.7187 111.313C80.1156 110.062 81.2133 108.514 81.9305 106.782C82.6478 105.049 82.9663 103.178 82.8625 101.306L82.5 94.7438C82.4041 92.9891 82.6793 91.2338 83.3077 89.5926C83.9361 87.9514 84.9035 86.4611 86.1467 85.219C87.39 83.977 88.8811 83.011 90.5229 82.3842C92.1647 81.7574 93.9203 81.4838 95.6749 81.5813L102.231 81.9438C104.102 82.0468 105.972 81.7278 107.703 81.0105C109.434 80.2933 110.981 79.1961 112.231 77.8001L116.612 72.9063Z" stroke="#224891" stroke-width="5"/>
<path d="M110.301 109.375H110.363V109.438H110.301V109.375ZM141.551 140.625H141.613V140.688H141.551V140.625Z" stroke="#224891" stroke-width="5" stroke-linejoin="round"/>
<path d="M144.676 106.25L107.176 143.75" stroke="#224891" stroke-width="5" stroke-linecap="round" stroke-linejoin="round"/>
</svg>
