<svg width="251" height="250" viewBox="0 0 251 250" fill="none" xmlns="http://www.w3.org/2000/svg">
<circle cx="125.334" cy="125" r="124.5" stroke="black"/>
<path d="M100.334 168.75C103.649 168.75 106.829 167.433 109.173 165.089C111.517 162.745 112.834 159.565 112.834 156.25C112.834 152.935 111.517 149.755 109.173 147.411C106.829 145.067 103.649 143.75 100.334 143.75C97.0188 143.75 93.8394 145.067 91.4951 147.411C89.1509 149.755 87.834 152.935 87.834 156.25C87.834 159.565 89.1509 162.745 91.4951 165.089C93.8394 167.433 97.0188 168.75 100.334 168.75ZM162.834 168.75C166.149 168.75 169.329 167.433 171.673 165.089C174.017 162.745 175.334 159.565 175.334 156.25C175.334 152.935 174.017 149.755 171.673 147.411C169.329 145.067 166.149 143.75 162.834 143.75C159.519 143.75 156.339 145.067 153.995 147.411C151.651 149.755 150.334 152.935 150.334 156.25C150.334 159.565 151.651 162.745 153.995 165.089C156.339 167.433 159.519 168.75 162.834 168.75Z" stroke="#224891" stroke-width="5" stroke-miterlimit="1.5" stroke-linecap="round" stroke-linejoin="round"/>
<path d="M113.146 156.25H144.084V91.25C144.084 90.2554 143.689 89.3016 142.986 88.5983C142.282 87.8951 141.329 87.5 140.334 87.5H56.584M85.6465 156.25H72.834C72.3415 156.25 71.8539 156.153 71.3989 155.965C70.944 155.776 70.5306 155.5 70.1823 155.152C69.8341 154.803 69.5579 154.39 69.3694 153.935C69.181 153.48 69.084 152.992 69.084 152.5V121.875" stroke="#224891" stroke-width="5" stroke-linecap="round"/>
<path d="M62.834 106.25H87.834" stroke="#224891" stroke-width="5" stroke-linecap="round" stroke-linejoin="round"/>
<path d="M144.084 106.25H179.146C179.871 106.25 180.581 106.46 181.188 106.855C181.796 107.25 182.277 107.813 182.571 108.475L193.759 133.65C193.972 134.128 194.083 134.645 194.084 135.169V152.5C194.084 152.992 193.987 153.48 193.799 153.935C193.61 154.39 193.334 154.803 192.986 155.152C192.637 155.5 192.224 155.776 191.769 155.965C191.314 156.153 190.826 156.25 190.334 156.25H178.459M144.084 156.25H150.334" stroke="#224891" stroke-width="5" stroke-linecap="round"/>
</svg>
