<svg width="250" height="250" viewBox="0 0 250 250" fill="none" xmlns="http://www.w3.org/2000/svg">
<circle cx="125" cy="125" r="124.5" stroke="black"/>
<path d="M115 115C126.046 115 135 106.046 135 95C135 83.9543 126.046 75 115 75C103.954 75 95 83.9543 95 95C95 106.046 103.954 115 115 115Z" stroke="#224891" stroke-width="5"/>
<path d="M155 152.5C155 164.925 155 175 115 175C75 175 75 164.925 75 152.5C75 140.075 92.91 130 115 130C137.09 130 155 140.075 155 152.5Z" stroke="#224891" stroke-width="5"/>
<path d="M160 75C160 75 170 81 170 95C170 109 160 115 160 115M150 85C150 85 155 88 155 95C155 102 150 105 150 105" stroke="#224891" stroke-width="5" stroke-linecap="round"/>
</svg>
