<svg width="250" height="250" viewBox="0 0 250 250" fill="none" xmlns="http://www.w3.org/2000/svg">
<path d="M249.5 125C249.5 193.759 193.759 249.5 125 249.5C56.2406 249.5 0.5 193.759 0.5 125C0.5 56.2406 56.2406 0.5 125 0.5C193.759 0.5 249.5 56.2406 249.5 125Z" stroke="black"/>
<path d="M94.5316 124.047V107.088M86.0535 115.566H103.01M103.71 92.7876V87.747C103.71 85.9345 102.238 84.4595 100.422 84.4595H88.641C86.8285 84.4595 85.3535 85.9313 85.3535 87.747V93.2782" stroke="#224891" stroke-width="5" stroke-linecap="round" stroke-linejoin="round"/>
<path d="M140.762 136.675L154.99 158.019C157.168 161.282 160.413 163.685 164.17 164.816C167.926 165.947 171.959 165.735 175.577 164.216C179.194 162.698 182.17 159.968 183.993 156.494C185.817 153.021 186.375 149.021 185.571 145.181C182.496 130.588 180.043 116.975 177.534 107.738C174.89 98.0094 165.396 91.2375 154.771 91.2375C148.359 91.2375 142.546 93.7688 138.246 97.8719H111.752C107.308 93.6103 101.388 91.2321 95.2304 91.2344C84.6023 91.2344 75.1054 98.0094 72.4648 107.734C69.9554 116.975 67.5023 130.588 64.4273 145.181C63.6227 149.022 64.1803 153.022 66.0044 156.496C67.8284 159.97 70.8051 162.701 74.4232 164.219C78.0413 165.738 82.0752 165.949 85.8321 164.817C89.5891 163.685 92.8347 161.28 95.0116 158.016L109.24 136.672L140.762 136.675Z" stroke="#224891" stroke-width="5" stroke-linecap="round" stroke-linejoin="round"/>
<path d="M146.291 92.7876V87.747C146.291 85.9345 147.763 84.4595 149.579 84.4595H161.36C163.172 84.4595 164.647 85.9313 164.647 87.747V93.2782" stroke="#224891" stroke-width="5" stroke-linecap="round" stroke-linejoin="round"/>
<path d="M146.969 117.909C148.263 117.909 149.312 116.86 149.312 115.566C149.312 114.271 148.263 113.222 146.969 113.222C145.674 113.222 144.625 114.271 144.625 115.566C144.625 116.86 145.674 117.909 146.969 117.909Z" fill="#224891"/>
<path d="M163.947 117.909C165.242 117.909 166.291 116.86 166.291 115.566C166.291 114.271 165.242 113.222 163.947 113.222C162.653 113.222 161.604 114.271 161.604 115.566C161.604 116.86 162.653 117.909 163.947 117.909Z" fill="#224891"/>
<path d="M155.469 109.431C156.763 109.431 157.812 108.382 157.812 107.087C157.812 105.793 156.763 104.744 155.469 104.744C154.174 104.744 153.125 105.793 153.125 107.087C153.125 108.382 154.174 109.431 155.469 109.431Z" fill="#224891"/>
<path d="M155.469 126.5C156.824 126.5 157.922 125.402 157.922 124.047C157.922 122.692 156.824 121.594 155.469 121.594C154.114 121.594 153.016 122.692 153.016 124.047C153.016 125.402 154.114 126.5 155.469 126.5Z" fill="#224891"/>
</svg>
